<svg width="64" height="64" viewBox="0 0 64 64" xmlns="http://www.w3.org/2000/svg">
  <path fill="#7d7d7d" d="
    M32 6
    C36 6 38.5 10.5 38 15.5
    C42.5 12 48 12.5 50.5 16
    C53 19.5 50.5 24.5 46 26.5
    C51 27.5 54.5 31.5 53.5 36
    C52.5 40.5 47 42 42.5 40
    C45.5 44 45 49.5 41 52
    C37 54.5 32.5 51.5 31 47
    C29.5 51.5 25 54.5 21 52
    C17 49.5 16.5 44 19.5 40
    C15 42 9.5 40.5 8.5 36
    C7.5 31.5 11 27.5 16 26.5
    C11.5 24.5 9 19.5 11.5 16
    C14 12.5 19.5 12 24 15.5
    C23.5 10.5 28 6 32 6
    Z"/>
</svg>
