<svg width="240" height="240" viewBox="0 0 240 240" xmlns="http://www.w3.org/2000/svg" shape-rendering="crispEdges">
  <g fill="#38322F">
    <!-- r1 --><rect x="96" y="12" width="12" height="12"/><rect x="108" y="12" width="12" height="12"/><rect x="120" y="12" width="12" height="12"/><rect x="132" y="12" width="12" height="12"/>
    <!-- r2 --><rect x="84" y="24" width="12" height="12"/><rect x="96" y="24" width="12" height="12"/><rect x="108" y="24" width="12" height="12"/><rect x="120" y="24" width="12" height="12"/><rect x="132" y="24" width="12" height="12"/><rect x="144" y="24" width="12" height="12"/>
    <!-- r3 --><rect x="84" y="36" width="12" height="12"/><rect x="96" y="36" width="12" height="12"/><rect x="108" y="36" width="12" height="12"/><rect x="120" y="36" width="12" height="12"/><rect x="132" y="36" width="12" height="12"/><rect x="144" y="36" width="12" height="12"/>
    <!-- r4 --><rect x="84" y="48" width="12" height="12"/><rect x="96" y="48" width="12" height="12"/><rect x="108" y="48" width="12" height="12"/><rect x="120" y="48" width="12" height="12"/><rect x="132" y="48" width="12" height="12"/><rect x="144" y="48" width="12" height="12"/>
    <!-- r5 --><rect x="48" y="60" width="12" height="12"/><rect x="60" y="60" width="12" height="12"/><rect x="72" y="60" width="12" height="12"/><rect x="84" y="60" width="12" height="12"/><rect x="96" y="60" width="12" height="12"/><rect x="108" y="60" width="12" height="12"/><rect x="120" y="60" width="12" height="12"/><rect x="132" y="60" width="12" height="12"/><rect x="144" y="60" width="12" height="12"/><rect x="156" y="60" width="12" height="12"/><rect x="168" y="60" width="12" height="12"/><rect x="180" y="60" width="12" height="12"/>
    <!-- r6 --><rect x="36" y="72" width="12" height="12"/><rect x="48" y="72" width="12" height="12"/><rect x="60" y="72" width="12" height="12"/><rect x="72" y="72" width="12" height="12"/><rect x="84" y="72" width="12" height="12"/><rect x="96" y="72" width="12" height="12"/><rect x="108" y="72" width="12" height="12"/><rect x="120" y="72" width="12" height="12"/><rect x="132" y="72" width="12" height="12"/><rect x="144" y="72" width="12" height="12"/><rect x="156" y="72" width="12" height="12"/><rect x="168" y="72" width="12" height="12"/><rect x="180" y="72" width="12" height="12"/><rect x="192" y="72" width="12" height="12"/>
    <!-- r7 (center hole) --><rect x="24" y="84" width="12" height="12"/><rect x="36" y="84" width="12" height="12"/><rect x="48" y="84" width="12" height="12"/><rect x="60" y="84" width="12" height="12"/><rect x="72" y="84" width="12" height="12"/><rect x="84" y="84" width="12" height="12"/><rect x="96" y="84" width="12" height="12"/><rect x="132" y="84" width="12" height="12"/><rect x="144" y="84" width="12" height="12"/><rect x="156" y="84" width="12" height="12"/><rect x="168" y="84" width="12" height="12"/><rect x="180" y="84" width="12" height="12"/><rect x="192" y="84" width="12" height="12"/><rect x="204" y="84" width="12" height="12"/>
    <!-- r8 (center hole) --><rect x="24" y="96" width="12" height="12"/><rect x="36" y="96" width="12" height="12"/><rect x="48" y="96" width="12" height="12"/><rect x="60" y="96" width="12" height="12"/><rect x="72" y="96" width="12" height="12"/><rect x="84" y="96" width="12" height="12"/><rect x="96" y="96" width="12" height="12"/><rect x="132" y="96" width="12" height="12"/><rect x="144" y="96" width="12" height="12"/><rect x="156" y="96" width="12" height="12"/><rect x="168" y="96" width="12" height="12"/><rect x="180" y="96" width="12" height="12"/><rect x="192" y="96" width="12" height="12"/><rect x="204" y="96" width="12" height="12"/>
    <!-- r9 --><rect x="36" y="108" width="12" height="12"/><rect x="48" y="108" width="12" height="12"/><rect x="60" y="108" width="12" height="12"/><rect x="72" y="108" width="12" height="12"/><rect x="84" y="108" width="12" height="12"/><rect x="96" y="108" width="12" height="12"/><rect x="108" y="108" width="12" height="12"/><rect x="120" y="108" width="12" height="12"/><rect x="132" y="108" width="12" height="12"/><rect x="144" y="108" width="12" height="12"/><rect x="156" y="108" width="12" height="12"/><rect x="168" y="108" width="12" height="12"/><rect x="180" y="108" width="12" height="12"/>
    <!-- r10 --><rect x="48" y="120" width="12" height="12"/><rect x="60" y="120" width="12" height="12"/><rect x="72" y="120" width="12" height="12"/><rect x="84" y="120" width="12" height="12"/><rect x="96" y="120" width="12" height="12"/><rect x="108" y="120" width="12" height="12"/><rect x="120" y="120" width="12" height="12"/><rect x="132" y="120" width="12" height="12"/><rect x="144" y="120" width="12" height="12"/><rect x="156" y="120" width="12" height="12"/><rect x="168" y="120" width="12" height="12"/><rect x="180" y="120" width="12" height="12"/>
    <!-- r11 --><rect x="84" y="132" width="12" height="12"/><rect x="96" y="132" width="12" height="12"/><rect x="108" y="132" width="12" height="12"/><rect x="120" y="132" width="12" height="12"/><rect x="132" y="132" width="12" height="12"/><rect x="144" y="132" width="12" height="12"/>
    <!-- r12 --><rect x="84" y="144" width="12" height="12"/><rect x="96" y="144" width="12" height="12"/><rect x="108" y="144" width="12" height="12"/><rect x="120" y="144" width="12" height="12"/><rect x="132" y="144" width="12" height="12"/><rect x="144" y="144" width="12" height="12"/>
    <!-- r13 --><rect x="84" y="156" width="12" height="12"/><rect x="96" y="156" width="12" height="12"/><rect x="108" y="156" width="12" height="12"/><rect x="120" y="156" width="12" height="12"/><rect x="132" y="156" width="12" height="12"/><rect x="144" y="156" width="12" height="12"/>
    <!-- r14 --><rect x="96" y="168" width="12" height="12"/><rect x="108" y="168" width="12" height="12"/><rect x="120" y="168" width="12" height="12"/><rect x="132" y="168" width="12" height="12"/>
    <!-- stem -->
    <!-- r15 --><rect x="108" y="180" width="12" height="12"/><rect x="120" y="180" width="12" height="12"/>
    <!-- r16 --><rect x="108" y="192" width="12" height="12"/><rect x="120" y="192" width="12" height="12"/>
    <!-- r17 leaf --><rect x="72" y="204" width="12" height="12"/><rect x="84" y="204" width="12" height="12"/><rect x="96" y="204" width="12" height="12"/><rect x="108" y="204" width="12" height="12"/><rect x="120" y="204" width="12" height="12"/>
    <!-- r18 --><rect x="108" y="216" width="12" height="12"/><rect x="120" y="216" width="12" height="12"/>
  </g>
</svg>
