<svg width="320" height="452" viewBox="0 0 320 452" fill="none" xmlns="http://www.w3.org/2000/svg">
<foreignObject x="48" y="225" width="228" height="115"><div xmlns="http://www.w3.org/1999/xhtml" style="backdrop-filter:blur(10px);clip-path:url(#bgblur_0_30_37_clip_path);height:100%;width:100%"></div></foreignObject><path data-figma-bg-blur-radius="20" d="M177.866 245L68 290.254L177.866 320L256 283.39L177.866 245Z" fill="#7D7D7D" fill-opacity="0.7"/>
<foreignObject x="91" y="393" width="138" height="79"><div xmlns="http://www.w3.org/1999/xhtml" style="backdrop-filter:blur(10px);clip-path:url(#bgblur_1_30_37_clip_path);height:100%;width:100%"></div></foreignObject><path data-figma-bg-blur-radius="20" d="M159.14 452L111 443.25L131.632 424L169.8 413L209 442.5L159.14 452Z" fill="#7D7D7D" fill-opacity="0.7"/>
<foreignObject x="48" y="270" width="160" height="193"><div xmlns="http://www.w3.org/1999/xhtml" style="backdrop-filter:blur(10px);clip-path:url(#bgblur_2_30_37_clip_path);height:100%;width:100%"></div></foreignObject><path data-figma-bg-blur-radius="20" d="M188 307.566L68 290L124.932 379.865V391.576L111.295 443L166.523 421.87V391.576L188 307.566Z" fill="#BBBBBB" fill-opacity="0.7"/>
<path d="M149 335.5C167.167 318.333 199 271.7 181 222.5C158.5 161 232.5 146.5 247.5 144.5C262.5 142.5 311 132.5 300 82" stroke="#7D7D7D" stroke-width="6"/>
<path d="M182.608 409.5C164.441 392.333 132.608 345.7 150.608 296.5C173.108 235 99.108 220.5 84.108 218.5C69.108 216.5 20.608 206.5 31.608 156" stroke="#7D7D7D" stroke-width="6"/>
<foreignObject x="219" y="36" width="111" height="91"><div xmlns="http://www.w3.org/1999/xhtml" style="backdrop-filter:blur(5px);clip-path:url(#bgblur_3_30_37_clip_path);height:100%;width:100%"></div></foreignObject><rect data-figma-bg-blur-radius="10" x="229" y="46" width="91" height="71" fill="#D9D9D9" fill-opacity="0.8"/>
<foreignObject x="181" y="5" width="87" height="51"><div xmlns="http://www.w3.org/1999/xhtml" style="backdrop-filter:blur(5px);clip-path:url(#bgblur_4_30_37_clip_path);height:100%;width:100%"></div></foreignObject><rect data-figma-bg-blur-radius="10" x="191" y="15" width="67" height="31" fill="#D9D9D9" fill-opacity="0.8"/>
<foreignObject x="248" y="-10" width="46" height="35"><div xmlns="http://www.w3.org/1999/xhtml" style="backdrop-filter:blur(5px);clip-path:url(#bgblur_5_30_37_clip_path);height:100%;width:100%"></div></foreignObject><rect data-figma-bg-blur-radius="10" x="258" width="26" height="15" fill="#D9D9D9" fill-opacity="0.8"/>
<foreignObject x="128" y="128" width="111" height="91"><div xmlns="http://www.w3.org/1999/xhtml" style="backdrop-filter:blur(5px);clip-path:url(#bgblur_6_30_37_clip_path);height:100%;width:100%"></div></foreignObject><rect data-figma-bg-blur-radius="10" x="138" y="138" width="91" height="71" fill="#D9D9D9" fill-opacity="0.8"/>
<foreignObject x="-10" y="98" width="80" height="80"><div xmlns="http://www.w3.org/1999/xhtml" style="backdrop-filter:blur(5px);clip-path:url(#bgblur_7_30_37_clip_path);height:100%;width:100%"></div></foreignObject><rect data-figma-bg-blur-radius="10" y="108" width="60" height="60" fill="#D9D9D9" fill-opacity="0.8"/>
<foreignObject x="47" y="52" width="43" height="43"><div xmlns="http://www.w3.org/1999/xhtml" style="backdrop-filter:blur(5px);clip-path:url(#bgblur_8_30_37_clip_path);height:100%;width:100%"></div></foreignObject><rect data-figma-bg-blur-radius="10" x="57" y="62" width="23" height="23" fill="#D9D9D9" fill-opacity="0.8"/>
<foreignObject x="11" y="75" width="59" height="43"><div xmlns="http://www.w3.org/1999/xhtml" style="backdrop-filter:blur(5px);clip-path:url(#bgblur_9_30_37_clip_path);height:100%;width:100%"></div></foreignObject><rect data-figma-bg-blur-radius="10" x="21" y="108" width="23" height="39" transform="rotate(-90 21 108)" fill="#D9D9D9" fill-opacity="0.8"/>
<foreignObject x="117" y="274" width="148" height="178"><div xmlns="http://www.w3.org/1999/xhtml" style="backdrop-filter:blur(5px);clip-path:url(#bgblur_10_30_37_clip_path);height:100%;width:100%"></div></foreignObject><path data-figma-bg-blur-radius="10" d="M127 326.86L255 284L193.383 379.612V390.263L208.362 442L170.915 431.095L127 326.86Z" fill="#D9D9D9" fill-opacity="0.5"/>
<defs>
<clipPath id="bgblur_0_30_37_clip_path" transform="translate(-48 -225)"><path d="M177.866 245L68 290.254L177.866 320L256 283.39L177.866 245Z"/>
</clipPath><clipPath id="bgblur_1_30_37_clip_path" transform="translate(-91 -393)"><path d="M159.14 452L111 443.25L131.632 424L169.8 413L209 442.5L159.14 452Z"/>
</clipPath><clipPath id="bgblur_2_30_37_clip_path" transform="translate(-48 -270)"><path d="M188 307.566L68 290L124.932 379.865V391.576L111.295 443L166.523 421.87V391.576L188 307.566Z"/>
</clipPath><clipPath id="bgblur_3_30_37_clip_path" transform="translate(-219 -36)"><rect x="229" y="46" width="91" height="71"/>
</clipPath><clipPath id="bgblur_4_30_37_clip_path" transform="translate(-181 -5)"><rect x="191" y="15" width="67" height="31"/>
</clipPath><clipPath id="bgblur_5_30_37_clip_path" transform="translate(-248 10)"><rect x="258" width="26" height="15"/>
</clipPath><clipPath id="bgblur_6_30_37_clip_path" transform="translate(-128 -128)"><rect x="138" y="138" width="91" height="71"/>
</clipPath><clipPath id="bgblur_7_30_37_clip_path" transform="translate(10 -98)"><rect y="108" width="60" height="60"/>
</clipPath><clipPath id="bgblur_8_30_37_clip_path" transform="translate(-47 -52)"><rect x="57" y="62" width="23" height="23"/>
</clipPath><clipPath id="bgblur_9_30_37_clip_path" transform="translate(-11 -75)"><rect x="21" y="108" width="23" height="39" transform="rotate(-90 21 108)"/>
</clipPath><clipPath id="bgblur_10_30_37_clip_path" transform="translate(-117 -274)"><path d="M127 326.86L255 284L193.383 379.612V390.263L208.362 442L170.915 431.095L127 326.86Z"/>
</clipPath></defs>
</svg>
