<svg width="200" height="250" viewBox="0 0 200 250" fill="none" xmlns="http://www.w3.org/2000/svg">
<path d="M150 72.0007C144.216 64.4808 145.933 54.7827 154.012 48.1699C159.236 56.5188 157.52 66.2169 150 72.0007Z" fill="#38322F"/>
<path d="M58 99.9998C50.0105 104.17 41.2205 100.965 36.3665 92.3152C45.0394 88.8046 53.8294 92.0104 58 99.9998Z" fill="#38322F"/>
<path d="M150 127.999C148.876 119.535 154.578 112.749 163.851 111.23C164.166 120.089 158.464 126.875 150 127.999Z" fill="#38322F"/>
<path d="M82 88C86 122 100 150 105 170" stroke="#38322F" stroke-width="2.6" stroke-linecap="round" stroke-linejoin="round"/>
<path d="M124 98C123 130 110 156 105 170" stroke="#38322F" stroke-width="2.6" stroke-linecap="round" stroke-linejoin="round"/>
<path d="M100 122C101 142 104 158 105 170" stroke="#38322F" stroke-width="2.6" stroke-linecap="round" stroke-linejoin="round"/>
<path d="M104 184C100 202 95 216 90 232" stroke="#38322F" stroke-width="2.6" stroke-linecap="round" stroke-linejoin="round"/>
<path d="M105 184L104 234" stroke="#38322F" stroke-width="2.6" stroke-linecap="round" stroke-linejoin="round"/>
<path d="M106 184C110 202 115 214 120 230" stroke="#38322F" stroke-width="2.6" stroke-linecap="round" stroke-linejoin="round"/>
<path d="M103 184C100 200 99 212 99 226" stroke="#38322F" stroke-width="2.6" stroke-linecap="round" stroke-linejoin="round"/>
<path d="M82 70.8475C86.5774 70.8475 90.288 67.1368 90.288 62.5595C90.288 57.9821 86.5774 54.2715 82 54.2715C77.4227 54.2715 73.712 57.9821 73.712 62.5595C73.712 67.1368 77.4227 70.8475 82 70.8475Z" fill="#38322F"/>
<path d="M93.6368 77.5682C98.2141 77.5682 101.925 73.8575 101.925 69.2802C101.925 64.7029 98.2141 60.9922 93.6368 60.9922C89.0594 60.9922 85.3488 64.7029 85.3488 69.2802C85.3488 73.8575 89.0594 77.5682 93.6368 77.5682Z" fill="#38322F"/>
<path d="M93.6368 91.0076C98.2141 91.0076 101.925 87.297 101.925 82.7196C101.925 78.1423 98.2141 74.4316 93.6368 74.4316C89.0594 74.4316 85.3488 78.1423 85.3488 82.7196C85.3488 87.297 89.0594 91.0076 93.6368 91.0076Z" fill="#38322F"/>
<path d="M82 97.7283C86.5774 97.7283 90.288 94.0177 90.288 89.4403C90.288 84.863 86.5774 81.1523 82 81.1523C77.4227 81.1523 73.712 84.863 73.712 89.4403C73.712 94.0177 77.4227 97.7283 82 97.7283Z" fill="#38322F"/>
<path d="M70.3632 91.0076C74.9405 91.0076 78.6512 87.297 78.6512 82.7196C78.6512 78.1423 74.9405 74.4316 70.3632 74.4316C65.7859 74.4316 62.0752 78.1423 62.0752 82.7196C62.0752 87.297 65.7859 91.0076 70.3632 91.0076Z" fill="#38322F"/>
<path d="M70.3632 77.5682C74.9405 77.5682 78.6512 73.8575 78.6512 69.2802C78.6512 64.7029 74.9405 60.9922 70.3632 60.9922C65.7859 60.9922 62.0752 64.7029 62.0752 69.2802C62.0752 73.8575 65.7859 77.5682 70.3632 77.5682Z" fill="#38322F"/>
<path fill-rule="evenodd" clip-rule="evenodd" d="M74.608 75.9994C74.608 77.9599 75.3868 79.8401 76.7731 81.2264C78.1594 82.6126 80.0396 83.3914 82 83.3914C83.9605 83.3914 85.8407 82.6126 87.227 81.2264C88.6132 79.8401 89.392 77.9599 89.392 75.9994C89.392 74.0389 88.6132 72.1588 87.227 70.7725C85.8407 69.3862 83.9605 68.6074 82 68.6074C80.0396 68.6074 78.1594 69.3862 76.7731 70.7725C75.3868 72.1588 74.608 74.0389 74.608 75.9994ZM77.296 75.9994C77.296 77.247 77.7916 78.4435 78.6738 79.3257C79.556 80.2078 80.7525 80.7034 82 80.7034C83.2476 80.7034 84.4441 80.2078 85.3263 79.3257C86.2084 78.4435 86.704 77.247 86.704 75.9994C86.704 74.7518 86.2084 73.5554 85.3263 72.6732C84.4441 71.791 83.2476 71.2954 82 71.2954C80.7525 71.2954 79.556 71.791 78.6738 72.6732C77.7916 73.5554 77.296 74.7518 77.296 75.9994ZM79.872 75.9994C79.872 76.2789 79.9271 76.5556 80.034 76.8138C80.141 77.072 80.2977 77.3065 80.4953 77.5041C80.6929 77.7017 80.9275 77.8585 81.1857 77.9654C81.4439 78.0724 81.7206 78.1274 82 78.1274C82.2795 78.1274 82.5562 78.0724 82.8144 77.9654C83.0726 77.8585 83.3072 77.7017 83.5048 77.5041C83.7024 77.3065 83.8591 77.072 83.966 76.8138C84.073 76.5556 84.128 76.2789 84.128 75.9994C84.128 75.72 84.073 75.4433 83.966 75.1851C83.8591 74.9269 83.7024 74.6923 83.5048 74.4947C83.3072 74.2971 83.0726 74.1403 82.8144 74.0334C82.5562 73.9265 82.2795 73.8714 82 73.8714C81.7206 73.8714 81.4439 73.9265 81.1857 74.0334C80.9275 74.1403 80.6929 74.2971 80.4953 74.4947C80.2977 74.6923 80.141 74.9269 80.034 75.1851C79.9271 75.4433 79.872 75.72 79.872 75.9994Z" fill="#38322F"/>
<path d="M124 83.3996C128.087 83.3996 131.4 80.0865 131.4 75.9996C131.4 71.9127 128.087 68.5996 124 68.5996C119.913 68.5996 116.6 71.9127 116.6 75.9996C116.6 80.0865 119.913 83.3996 124 83.3996Z" fill="#38322F"/>
<path d="M134.39 89.3996C138.477 89.3996 141.79 86.0865 141.79 81.9996C141.79 77.9127 138.477 74.5996 134.39 74.5996C130.303 74.5996 126.99 77.9127 126.99 81.9996C126.99 86.0865 130.303 89.3996 134.39 89.3996Z" fill="#38322F"/>
<path d="M134.39 101.4C138.477 101.4 141.79 98.0865 141.79 93.9996C141.79 89.9127 138.477 86.5996 134.39 86.5996C130.303 86.5996 126.99 89.9127 126.99 93.9996C126.99 98.0865 130.303 101.4 134.39 101.4Z" fill="#38322F"/>
<path d="M124 107.4C128.087 107.4 131.4 104.087 131.4 99.9996C131.4 95.9127 128.087 92.5996 124 92.5996C119.913 92.5996 116.6 95.9127 116.6 99.9996C116.6 104.087 119.913 107.4 124 107.4Z" fill="#38322F"/>
<path d="M113.61 101.4C117.697 101.4 121.01 98.0865 121.01 93.9996C121.01 89.9127 117.697 86.5996 113.61 86.5996C109.523 86.5996 106.21 89.9127 106.21 93.9996C106.21 98.0865 109.523 101.4 113.61 101.4Z" fill="#38322F"/>
<path d="M113.61 89.3996C117.697 89.3996 121.01 86.0865 121.01 81.9996C121.01 77.9127 117.697 74.5996 113.61 74.5996C109.523 74.5996 106.21 77.9127 106.21 81.9996C106.21 86.0865 109.523 89.3996 113.61 89.3996Z" fill="#38322F"/>
<path fill-rule="evenodd" clip-rule="evenodd" d="M117.4 88.0004C117.4 89.7508 118.095 91.4296 119.333 92.6673C120.571 93.905 122.249 94.6004 124 94.6004C125.75 94.6004 127.429 93.905 128.667 92.6673C129.905 91.4296 130.6 89.7508 130.6 88.0004C130.6 86.25 129.905 84.5712 128.667 83.3335C127.429 82.0957 125.75 81.4004 124 81.4004C122.249 81.4004 120.571 82.0957 119.333 83.3335C118.095 84.5712 117.4 86.25 117.4 88.0004ZM119.8 88.0004C119.8 89.1143 120.242 90.1826 121.03 90.9702C121.818 91.7579 122.886 92.2004 124 92.2004C125.114 92.2004 126.182 91.7579 126.97 90.9702C127.757 90.1826 128.2 89.1143 128.2 88.0004C128.2 86.8865 127.757 85.8182 126.97 85.0305C126.182 84.2429 125.114 83.8004 124 83.8004C122.886 83.8004 121.818 84.2429 121.03 85.0305C120.242 85.8182 119.8 86.8865 119.8 88.0004ZM122.1 88.0004C122.1 88.2499 122.149 88.497 122.245 88.7275C122.34 88.958 122.48 89.1675 122.656 89.3439C122.833 89.5203 123.042 89.6603 123.273 89.7558C123.503 89.8512 123.75 89.9004 124 89.9004C124.249 89.9004 124.496 89.8512 124.727 89.7558C124.958 89.6603 125.167 89.5203 125.343 89.3439C125.52 89.1675 125.66 88.958 125.755 88.7275C125.851 88.497 125.9 88.2499 125.9 88.0004C125.9 87.7509 125.851 87.5038 125.755 87.2733C125.66 87.0428 125.52 86.8333 125.343 86.6569C125.167 86.4805 124.958 86.3405 124.727 86.245C124.496 86.1495 124.249 86.1004 124 86.1004C123.75 86.1004 123.503 86.1495 123.273 86.245C123.042 86.3405 122.833 86.4805 122.656 86.6569C122.48 86.8333 122.34 87.0428 122.245 87.2733C122.149 87.5038 122.1 87.7509 122.1 88.0004Z" fill="#38322F"/>
<path d="M99.9999 107.033C104.414 107.033 107.992 103.455 107.992 99.0408C107.992 94.627 104.414 91.0488 99.9999 91.0488C95.5861 91.0488 92.0079 94.627 92.0079 99.0408C92.0079 103.455 95.5861 107.033 99.9999 107.033Z" fill="#38322F"/>
<path d="M111.221 113.513C115.635 113.513 119.213 109.935 119.213 105.521C119.213 101.107 115.635 97.5293 111.221 97.5293C106.807 97.5293 103.229 101.107 103.229 105.521C103.229 109.935 106.807 113.513 111.221 113.513Z" fill="#38322F"/>
<path d="M111.221 126.472C115.635 126.472 119.213 122.894 119.213 118.48C119.213 114.066 115.635 110.488 111.221 110.488C106.807 110.488 103.229 114.066 103.229 118.48C103.229 122.894 106.807 126.472 111.221 126.472Z" fill="#38322F"/>
<path d="M99.9999 132.953C104.414 132.953 107.992 129.375 107.992 124.961C107.992 120.547 104.414 116.969 99.9999 116.969C95.5861 116.969 92.0079 120.547 92.0079 124.961C92.0079 129.375 95.5861 132.953 99.9999 132.953Z" fill="#38322F"/>
<path d="M88.7787 126.472C93.1926 126.472 96.7707 122.894 96.7707 118.48C96.7707 114.066 93.1926 110.488 88.7787 110.488C84.3649 110.488 80.7867 114.066 80.7867 118.48C80.7867 122.894 84.3649 126.472 88.7787 126.472Z" fill="#38322F"/>
<path d="M88.7787 113.513C93.1926 113.513 96.7707 109.935 96.7707 105.521C96.7707 101.107 93.1926 97.5293 88.7787 97.5293C84.3649 97.5293 80.7867 101.107 80.7867 105.521C80.7867 109.935 84.3649 113.513 88.7787 113.513Z" fill="#38322F"/>
<path fill-rule="evenodd" clip-rule="evenodd" d="M92.8719 112.001C92.8719 113.892 93.6229 115.705 94.9597 117.041C96.2964 118.378 98.1095 119.129 99.9999 119.129C101.89 119.129 103.703 118.378 105.04 117.041C106.377 115.705 107.128 113.892 107.128 112.001C107.128 110.111 106.377 108.298 105.04 106.961C103.703 105.624 101.89 104.873 99.9999 104.873C98.1095 104.873 96.2964 105.624 94.9597 106.961C93.6229 108.298 92.8719 110.111 92.8719 112.001ZM95.4639 112.001C95.4639 113.204 95.9418 114.358 96.7925 115.208C97.6432 116.059 98.7969 116.537 99.9999 116.537C101.203 116.537 102.357 116.059 103.207 115.208C104.058 114.358 104.536 113.204 104.536 112.001C104.536 110.798 104.058 109.644 103.207 108.794C102.357 107.943 101.203 107.465 99.9999 107.465C98.7969 107.465 97.6432 107.943 96.7925 108.794C95.9418 109.644 95.4639 110.798 95.4639 112.001ZM97.9479 112.001C97.9479 112.271 98.001 112.537 98.1041 112.786C98.2073 113.035 98.3584 113.261 98.549 113.452C98.7395 113.643 98.9657 113.794 99.2147 113.897C99.4636 114 99.7305 114.053 99.9999 114.053C100.269 114.053 100.536 114 100.785 113.897C101.034 113.794 101.26 113.643 101.451 113.452C101.641 113.261 101.793 113.035 101.896 112.786C101.999 112.537 102.052 112.271 102.052 112.001C102.052 111.732 101.999 111.465 101.896 111.216C101.793 110.967 101.641 110.741 101.451 110.55C101.26 110.36 101.034 110.208 100.785 110.105C100.536 110.002 100.269 109.949 99.9999 109.949C99.7305 109.949 99.4636 110.002 99.2147 110.105C98.9657 110.208 98.7395 110.36 98.549 110.55C98.3584 110.741 98.2073 110.967 98.1041 111.216C98.001 111.465 97.9479 111.732 97.9479 112.001Z" fill="#38322F"/>
<path d="M112 165H98C94.134 165 91 168.134 91 172C91 175.866 94.134 179 98 179H112C115.866 179 119 175.866 119 172C119 168.134 115.866 165 112 165Z" fill="#38322F"/>
</svg>
