<svg width="64" height="104" viewBox="0 0 64 104" fill="none" xmlns="http://www.w3.org/2000/svg">
<g clip-path="url(#clip0_2215_68)">
<path d="M32 104V50" stroke="#38322F" stroke-width="2.4" stroke-linecap="round" stroke-linejoin="round"/>
<path d="M32.0001 67.9998C26.1003 70.0966 20.3629 67.0412 17.8598 60.6213C24.1659 59.0446 29.9033 62.1 32.0001 67.9998Z" fill="#38322F"/>
<path d="M32 24.8475C36.5774 24.8475 40.288 21.1368 40.288 16.5595C40.288 11.9821 36.5774 8.27148 32 8.27148C27.4227 8.27148 23.712 11.9821 23.712 16.5595C23.712 21.1368 27.4227 24.8475 32 24.8475Z" fill="#38322F"/>
<path d="M43.6368 31.5682C48.2141 31.5682 51.9248 27.8575 51.9248 23.2802C51.9248 18.7029 48.2141 14.9922 43.6368 14.9922C39.0594 14.9922 35.3488 18.7029 35.3488 23.2802C35.3488 27.8575 39.0594 31.5682 43.6368 31.5682Z" fill="#38322F"/>
<path d="M43.6368 45.0076C48.2141 45.0076 51.9248 41.297 51.9248 36.7196C51.9248 32.1423 48.2141 28.4316 43.6368 28.4316C39.0594 28.4316 35.3488 32.1423 35.3488 36.7196C35.3488 41.297 39.0594 45.0076 43.6368 45.0076Z" fill="#38322F"/>
<path d="M32 51.7283C36.5774 51.7283 40.288 48.0177 40.288 43.4403C40.288 38.863 36.5774 35.1523 32 35.1523C27.4227 35.1523 23.712 38.863 23.712 43.4403C23.712 48.0177 27.4227 51.7283 32 51.7283Z" fill="#38322F"/>
<path d="M20.3632 45.0076C24.9405 45.0076 28.6512 41.297 28.6512 36.7196C28.6512 32.1423 24.9405 28.4316 20.3632 28.4316C15.7859 28.4316 12.0752 32.1423 12.0752 36.7196C12.0752 41.297 15.7859 45.0076 20.3632 45.0076Z" fill="#38322F"/>
<path d="M20.3632 31.5682C24.9405 31.5682 28.6512 27.8575 28.6512 23.2802C28.6512 18.7029 24.9405 14.9922 20.3632 14.9922C15.7859 14.9922 12.0752 18.7029 12.0752 23.2802C12.0752 27.8575 15.7859 31.5682 20.3632 31.5682Z" fill="#38322F"/>
<path fill-rule="evenodd" clip-rule="evenodd" d="M24.608 29.9994C24.608 31.9599 25.3868 33.8401 26.7731 35.2264C28.1594 36.6126 30.0396 37.3914 32 37.3914C33.9605 37.3914 35.8407 36.6126 37.227 35.2264C38.6132 33.8401 39.392 31.9599 39.392 29.9994C39.392 28.0389 38.6132 26.1588 37.227 24.7725C35.8407 23.3862 33.9605 22.6074 32 22.6074C30.0396 22.6074 28.1594 23.3862 26.7731 24.7725C25.3868 26.1588 24.608 28.0389 24.608 29.9994ZM27.296 29.9994C27.296 31.247 27.7916 32.4435 28.6738 33.3257C29.556 34.2078 30.7525 34.7034 32 34.7034C33.2476 34.7034 34.4441 34.2078 35.3263 33.3257C36.2084 32.4435 36.704 31.247 36.704 29.9994C36.704 28.7518 36.2084 27.5554 35.3263 26.6732C34.4441 25.791 33.2476 25.2954 32 25.2954C30.7525 25.2954 29.556 25.791 28.6738 26.6732C27.7916 27.5554 27.296 28.7518 27.296 29.9994ZM29.872 29.9994C29.872 30.2789 29.9271 30.5556 30.034 30.8138C30.141 31.072 30.2977 31.3065 30.4953 31.5041C30.6929 31.7017 30.9275 31.8585 31.1857 31.9654C31.4439 32.0724 31.7206 32.1274 32 32.1274C32.2795 32.1274 32.5562 32.0724 32.8144 31.9654C33.0726 31.8585 33.3072 31.7017 33.5048 31.5041C33.7024 31.3065 33.8591 31.072 33.966 30.8138C34.073 30.5556 34.128 30.2789 34.128 29.9994C34.128 29.72 34.073 29.4433 33.966 29.1851C33.8591 28.9269 33.7024 28.6923 33.5048 28.4947C33.3072 28.2971 33.0726 28.1403 32.8144 28.0334C32.5562 27.9265 32.2795 27.8714 32 27.8714C31.7206 27.8714 31.4439 27.9265 31.1857 28.0334C30.9275 28.1403 30.6929 28.2971 30.4953 28.4947C30.2977 28.6923 30.141 28.9269 30.034 29.1851C29.9271 29.4433 29.872 29.72 29.872 29.9994Z" fill="#38322F"/>
</g>
<defs>
<clipPath id="clip0_2215_68">
<rect width="64" height="104" fill="white"/>
</clipPath>
</defs>
</svg>
